<?xml version="1.0" encoding="UTF-8" standalone="no"?>
<!-- Created with Inkscape (http://www.inkscape.org/) -->

<svg
   width="400"
   height="2400"
   viewBox="0 0 25 150"
   version="1.1"
   id="svg5"
   xmlns="http://www.w3.org/2000/svg"
   xmlns:svg="http://www.w3.org/2000/svg">
  <defs
     id="defs2" />
  <g
     id="layer3">
    <rect
       style="fill:#e5e5e5;fill-opacity:1;stroke:#000000;stroke-width:0.25;stroke-opacity:0"
       id="rect5157"
       width="100"
       height="90"
       x="0"
       y="80" />
  </g>
  <g
     id="layer1">
    <path
       style="fill:none;stroke:#add8e6;stroke-width:1"
       d="m 49,260 v -4 a 4,4 0 0 1 4,-4 h 25.5 10 a 5,5 0 0 0 5,-5 V 231 215 210 200 190 180 170 158 146 134 122 110 99 M 49,260 v 25 a 4,4 0 0 1 -4,4 H 30 a 5,5 0 0 0 -5,5 v 3 5 a 5,5 0 0 1 -5,5 H 10 a 5,5 0 0 0 -5,5 v 10 10 10 10 5 a 5,5 0 0 0 5,5 h 3 -3 a 5,5 0 0 0 -5,5 v -10 15 10 10 10 10"
       id="path402-5-6-4" />
  </g>
  <g
     id="layer4"
     style="fill:#000000;fill-opacity:1;stroke:#ffffff;stroke-width:0.25;stroke-opacity:1">
    <path
       d="m 0,0 a 0.65,0.65 0 1 0 0,-0.5 h -0.1 a 0.25,0.25 0 0 0 0,0.5 z"
       id="proto-single"
       style="display:none" />
    <path
       d="m 0,0 a 0.65,0.65 0 1 0 0,0.50001 h 0.1 a 0.65,0.65 0 0 0 1.2,0 H 1.4 A 0.250005,0.250005 0 0 0 1.4,0 H 1.3 A 0.65,0.65 0 0 0 0.1,0 Z"
       id="proto-double"
       style="display:none" />
  </g>
  <g
     id="g15243"
     style="fill:#ffffff;fill-opacity:1;stroke:#000000;stroke-width:0.4;stroke-opacity:1">
    <path
       d="M 0,0 H 6 A 1,1 0 1 0 6,-2 H 0 a 1,1 0 1 0 0,2"
       id="proto-link-7"
       style="display:none" />
  </g>
  <g
     id="layer2"
     style="display:inline">
    <path
       id="rect792-2-2-3"
       style="display:inline;fill:#ffffff;stroke:#000000;stroke-width:0.0827592"
       d="m 17,78.25 h 15 v 3.5 H 17 Z" />
    <g
       aria-label="Besses o' th' Barn"
       id="text282-6-1-0"
       style="font-size:2.66667px;text-align:end;text-anchor:end;display:inline;stroke-width:0.25">
      <path
         d="m 19.557277,99.596352 h 0.566407 q 0.36849,0 0.55599,0.106771 0.187501,0.106771 0.187501,0.368487 0,0.10938 -0.03906,0.19792 -0.03776,0.0872 -0.110677,0.14453 -0.07292,0.056 -0.179688,0.0755 v 0.013 q 0.110677,0.0195 0.196615,0.069 0.08724,0.0495 0.136719,0.14193 0.05078,0.0924 0.05078,0.23958 0,0.17448 -0.08333,0.29688 -0.08203,0.1224 -0.235678,0.1862 -0.152344,0.0638 -0.361979,0.0638 h -0.683595 z m 0.3125,0.785158 h 0.29948 q 0.21224,0 0.294271,-0.069 0.08203,-0.069 0.08203,-0.20182 0,-0.135422 -0.09766,-0.195317 -0.09635,-0.0599 -0.307292,-0.0599 h -0.270834 z m 0,0.2526 v 0.60417 h 0.329428 q 0.21875,0 0.307292,-0.0846 0.08854,-0.0846 0.08854,-0.22917 0,-0.0885 -0.04037,-0.15365 -0.03906,-0.0651 -0.128906,-0.10026 -0.08984,-0.0365 -0.242188,-0.0365 z"
         style="font-weight:600;font-family:'Open Sans';-inkscape-font-specification:'Open Sans Semi-Bold'"
         id="path14534" />
      <path
         d="m 21.858061,100.03125 q 0.192709,0 0.33073,0.0794 0.138021,0.0794 0.21224,0.22526 0.07422,0.14583 0.07422,0.34895 v 0.16407 H 21.51301 q 0.0052,0.20963 0.111979,0.32291 0.108073,0.11329 0.302084,0.11329 0.138021,0 0.247396,-0.026 0.110677,-0.0273 0.227865,-0.0794 v 0.2487 q -0.108073,0.0508 -0.220053,0.0742 -0.111979,0.0234 -0.268229,0.0234 -0.21224,0 -0.373699,-0.082 -0.160156,-0.0833 -0.251302,-0.2474 -0.08984,-0.16406 -0.08984,-0.40755 0,-0.24219 0.08203,-0.41146 0.08203,-0.16927 0.230469,-0.25781 0.148437,-0.0885 0.346354,-0.0885 z m 0,0.23047 q -0.144531,0 -0.234375,0.0937 -0.08854,0.0937 -0.104167,0.27474 h 0.656251 q -0.0013,-0.10808 -0.03646,-0.19141 -0.03385,-0.0833 -0.104167,-0.13021 -0.06901,-0.0469 -0.177084,-0.0469 z"
         style="font-weight:600;font-family:'Open Sans';-inkscape-font-specification:'Open Sans Semi-Bold'"
         id="path14536" />
      <path
         d="m 23.789053,101.08854 q 0,0.14193 -0.06901,0.23958 -0.06901,0.0977 -0.201823,0.14844 -0.131511,0.0495 -0.322918,0.0495 -0.151041,0 -0.260417,-0.0221 -0.108073,-0.0208 -0.204427,-0.0651 v -0.26432 q 0.102865,0.0482 0.230469,0.0833 0.128907,0.0352 0.24349,0.0352 0.151042,0 0.217448,-0.0469 0.06641,-0.0482 0.06641,-0.1276 0,-0.0469 -0.02734,-0.0833 -0.02604,-0.0378 -0.09896,-0.0768 -0.07161,-0.0404 -0.210937,-0.0964 -0.136719,-0.0547 -0.230469,-0.10938 -0.09375,-0.0547 -0.141928,-0.13151 -0.04818,-0.0781 -0.04818,-0.19922 0,-0.1914 0.151042,-0.29036 0.152344,-0.10026 0.402344,-0.10026 0.132813,0 0.250001,0.0273 0.118489,0.026 0.231771,0.0768 l -0.09636,0.23047 q -0.09766,-0.043 -0.196614,-0.0703 -0.09766,-0.0286 -0.199219,-0.0286 -0.11849,0 -0.18099,0.0365 -0.0612,0.0365 -0.0612,0.10417 0,0.0508 0.02995,0.0859 0.02995,0.0352 0.102864,0.0703 0.07422,0.0352 0.20573,0.0872 0.128906,0.0495 0.222656,0.10417 0.09505,0.0534 0.145834,0.13151 0.05078,0.0781 0.05078,0.20182 z"
         style="font-weight:600;font-family:'Open Sans';-inkscape-font-specification:'Open Sans Semi-Bold'"
         id="path14538" />
      <path
         d="m 25.087232,101.08854 q 0,0.14193 -0.06901,0.23958 -0.06901,0.0977 -0.201824,0.14844 -0.13151,0.0495 -0.322917,0.0495 -0.151041,0 -0.260417,-0.0221 -0.108073,-0.0208 -0.204427,-0.0651 v -0.26432 q 0.102865,0.0482 0.230469,0.0833 0.128907,0.0352 0.24349,0.0352 0.151042,0 0.217448,-0.0469 0.06641,-0.0482 0.06641,-0.1276 0,-0.0469 -0.02734,-0.0833 -0.02604,-0.0378 -0.09896,-0.0768 -0.07161,-0.0404 -0.210937,-0.0964 -0.136719,-0.0547 -0.23047,-0.10938 -0.09375,-0.0547 -0.141927,-0.13151 -0.04818,-0.0781 -0.04818,-0.19922 0,-0.1914 0.151042,-0.29036 0.152344,-0.10026 0.402344,-0.10026 0.132813,0 0.250001,0.0273 0.118489,0.026 0.231771,0.0768 l -0.09635,0.23047 q -0.09766,-0.043 -0.196614,-0.0703 -0.09766,-0.0286 -0.199219,-0.0286 -0.11849,0 -0.18099,0.0365 -0.0612,0.0365 -0.0612,0.10417 0,0.0508 0.02995,0.0859 0.02995,0.0352 0.102864,0.0703 0.07422,0.0352 0.20573,0.0872 0.128906,0.0495 0.222656,0.10417 0.09505,0.0534 0.145834,0.13151 0.05078,0.0781 0.05078,0.20182 z"
         style="font-weight:600;font-family:'Open Sans';-inkscape-font-specification:'Open Sans Semi-Bold'"
         id="path14540" />
      <path
         d="m 25.990879,100.03125 q 0.192709,0 0.33073,0.0794 0.138021,0.0794 0.21224,0.22526 0.07422,0.14583 0.07422,0.34895 v 0.16407 h -0.96224 q 0.0052,0.20963 0.111979,0.32291 0.108073,0.11329 0.302084,0.11329 0.138021,0 0.247396,-0.026 0.110677,-0.0273 0.227865,-0.0794 v 0.2487 q -0.108073,0.0508 -0.220053,0.0742 -0.111979,0.0234 -0.268229,0.0234 -0.21224,0 -0.373699,-0.082 -0.160156,-0.0833 -0.251302,-0.2474 -0.08984,-0.16406 -0.08984,-0.40755 0,-0.24219 0.08203,-0.41146 0.08203,-0.16927 0.230469,-0.25781 0.148438,-0.0885 0.346355,-0.0885 z m 0,0.23047 q -0.144531,0 -0.234375,0.0937 -0.08854,0.0937 -0.104167,0.27474 h 0.656251 q -0.0013,-0.10808 -0.03646,-0.19141 -0.03385,-0.0833 -0.104166,-0.13021 -0.06901,-0.0469 -0.177084,-0.0469 z"
         style="font-weight:600;font-family:'Open Sans';-inkscape-font-specification:'Open Sans Semi-Bold'"
         id="path14542" />
      <path
         d="m 27.921871,101.08854 q 0,0.14193 -0.06901,0.23958 -0.06901,0.0977 -0.201823,0.14844 -0.131511,0.0495 -0.322918,0.0495 -0.151041,0 -0.260417,-0.0221 -0.108073,-0.0208 -0.204427,-0.0651 v -0.26432 q 0.102865,0.0482 0.230469,0.0833 0.128907,0.0352 0.24349,0.0352 0.151042,0 0.217448,-0.0469 0.06641,-0.0482 0.06641,-0.1276 0,-0.0469 -0.02734,-0.0833 -0.02604,-0.0378 -0.09896,-0.0768 -0.07161,-0.0404 -0.210937,-0.0964 -0.136719,-0.0547 -0.230469,-0.10938 -0.09375,-0.0547 -0.141928,-0.13151 -0.04818,-0.0781 -0.04818,-0.19922 0,-0.1914 0.151042,-0.29036 0.152344,-0.10026 0.402344,-0.10026 0.132813,0 0.250001,0.0273 0.118489,0.026 0.231771,0.0768 l -0.09636,0.23047 q -0.09766,-0.043 -0.196614,-0.0703 -0.09766,-0.0286 -0.199219,-0.0286 -0.11849,0 -0.18099,0.0365 -0.0612,0.0365 -0.0612,0.10417 0,0.0508 0.02995,0.0859 0.02995,0.0352 0.102864,0.0703 0.07422,0.0352 0.20573,0.0872 0.128906,0.0495 0.222656,0.10417 0.09505,0.0534 0.145834,0.13151 0.05078,0.0781 0.05078,0.20182 z"
         style="font-weight:600;font-family:'Open Sans';-inkscape-font-specification:'Open Sans Semi-Bold'"
         id="path14544" />
      <path
         d="m 30.220051,100.77604 q 0,0.17969 -0.04687,0.31901 -0.04687,0.13932 -0.136719,0.23568 -0.08984,0.0951 -0.216146,0.14583 -0.126302,0.0495 -0.285156,0.0495 -0.148438,0 -0.272136,-0.0495 -0.123698,-0.0508 -0.214844,-0.14583 -0.08984,-0.0964 -0.139323,-0.23568 -0.04948,-0.13932 -0.04948,-0.31901 0,-0.23828 0.08203,-0.40365 0.08333,-0.16666 0.236979,-0.2539 0.153646,-0.0872 0.365886,-0.0872 0.199219,0 0.351563,0.0872 0.152344,0.0872 0.238282,0.2539 0.08594,0.16667 0.08594,0.40365 z m -1.045574,0 q 0,0.15755 0.03776,0.26953 0.03906,0.11198 0.119791,0.17188 0.08073,0.0586 0.208334,0.0586 0.127604,0 0.208334,-0.0586 0.08073,-0.0599 0.118489,-0.17188 0.03776,-0.11198 0.03776,-0.26953 0,-0.15755 -0.03776,-0.26693 -0.03776,-0.11067 -0.118489,-0.16797 -0.08073,-0.0586 -0.209636,-0.0586 -0.190104,0 -0.277344,0.1276 -0.08724,0.12761 -0.08724,0.36589 z"
         style="font-weight:600;font-family:'Open Sans';-inkscape-font-specification:'Open Sans Semi-Bold'"
         id="path14546" />
      <path
         d="m 30.826823,99.596352 -0.05208,0.687498 h -0.196615 l -0.05078,-0.687498 z"
         style="font-weight:600;font-family:'Open Sans';-inkscape-font-specification:'Open Sans Semi-Bold'"
         id="path14548" />
      <path
         d="m 21.516915,104.61855 q 0.0599,0 0.11849,-0.0104 0.05859,-0.0117 0.106771,-0.0273 v 0.23177 q -0.05078,0.0221 -0.131511,0.0378 -0.08073,0.0156 -0.167969,0.0156 -0.122396,0 -0.220052,-0.0404 -0.09766,-0.0417 -0.154948,-0.14193 -0.05729,-0.10026 -0.05729,-0.27734 v -0.77474 h -0.196615 v -0.13672 l 0.210938,-0.10808 0.10026,-0.30859 h 0.192709 v 0.32031 h 0.412761 v 0.23308 h -0.412761 v 0.77083 q 0,0.10938 0.05469,0.16276 0.05469,0.0534 0.144532,0.0534 z"
         style="font-weight:600;font-family:'Open Sans';-inkscape-font-specification:'Open Sans Semi-Bold'"
         id="path14550" />
      <path
         d="m 22.341135,102.81386 v 0.50911 q 0,0.0794 -0.0052,0.15495 -0.0039,0.0755 -0.0091,0.11719 h 0.01693 q 0.04557,-0.0755 0.111979,-0.1237 0.06641,-0.0495 0.148438,-0.0742 0.08333,-0.0247 0.177083,-0.0247 0.165365,0 0.281251,0.056 0.115885,0.0547 0.177083,0.17057 0.0625,0.11589 0.0625,0.30079 v 0.9401 h -0.30599 v -0.88281 q 0,-0.16797 -0.06901,-0.25131 -0.06901,-0.0846 -0.213542,-0.0846 -0.139323,0 -0.221354,0.0586 -0.08073,0.0573 -0.115886,0.17058 -0.03516,0.11198 -0.03516,0.27343 v 0.71615 h -0.30599 v -2.02604 z"
         style="font-weight:600;font-family:'Open Sans';-inkscape-font-specification:'Open Sans Semi-Bold'"
         id="path14552" />
      <path
         d="m 23.984366,102.93625 -0.05208,0.6875 h -0.196615 l -0.05078,-0.6875 z"
         style="font-weight:600;font-family:'Open Sans';-inkscape-font-specification:'Open Sans Semi-Bold'"
         id="path14554" />
      <path
         d="m 25.100253,102.93625 h 0.566407 q 0.36849,0 0.55599,0.10677 0.1875,0.10677 0.1875,0.36849 0,0.10938 -0.03906,0.19792 -0.03776,0.0872 -0.110678,0.14453 -0.07292,0.056 -0.179687,0.0755 v 0.013 q 0.110677,0.0195 0.196615,0.069 0.08724,0.0495 0.136718,0.14193 0.05078,0.0924 0.05078,0.23959 0,0.17447 -0.08333,0.29687 -0.08203,0.1224 -0.235677,0.1862 -0.152344,0.0638 -0.36198,0.0638 h -0.683594 z m 0.3125,0.78516 h 0.29948 q 0.21224,0 0.294271,-0.069 0.08203,-0.069 0.08203,-0.20182 0,-0.13542 -0.09766,-0.19532 -0.09635,-0.0599 -0.307292,-0.0599 h -0.270834 z m 0,0.2526 v 0.60417 h 0.329428 q 0.21875,0 0.307292,-0.0846 0.08854,-0.0846 0.08854,-0.22917 0,-0.0885 -0.04036,-0.15365 -0.03906,-0.0651 -0.128907,-0.10026 -0.08984,-0.0365 -0.242187,-0.0365 z"
         style="font-weight:600;font-family:'Open Sans';-inkscape-font-specification:'Open Sans Semi-Bold'"
         id="path14556" />
      <path
         d="m 27.391922,103.37115 q 0.273438,0 0.412761,0.12109 0.140626,0.1211 0.140626,0.37761 v 0.97005 H 27.72786 l -0.05859,-0.20443 h -0.01042 q -0.0612,0.0781 -0.126302,0.12891 -0.0651,0.0508 -0.151042,0.0755 -0.08464,0.026 -0.207032,0.026 -0.128906,0 -0.230469,-0.0469 -0.101562,-0.0482 -0.160156,-0.14584 -0.05859,-0.0977 -0.05859,-0.24739 0,-0.22266 0.165365,-0.33464 0.166667,-0.11198 0.502605,-0.1237 l 0.25,-0.009 v -0.0755 q 0,-0.14974 -0.07031,-0.21354 -0.06901,-0.0638 -0.195312,-0.0638 -0.108074,0 -0.209636,0.0312 -0.101563,0.0312 -0.197917,0.0768 l -0.09896,-0.21615 q 0.105469,-0.056 0.239584,-0.0911 0.135417,-0.0352 0.28125,-0.0352 z m 0.250001,0.77995 -0.186198,0.007 q -0.229167,0.008 -0.321615,0.0781 -0.09245,0.0703 -0.09245,0.19271 0,0.10677 0.0638,0.15625 0.0638,0.0482 0.167969,0.0482 0.158854,0 0.263021,-0.0898 0.105469,-0.0911 0.105469,-0.26693 z"
         style="font-weight:600;font-family:'Open Sans';-inkscape-font-specification:'Open Sans Semi-Bold'"
         id="path14558" />
      <path
         d="m 29.104164,103.37115 q 0.03646,0 0.07943,0.004 0.04297,0.004 0.07422,0.0104 l -0.02865,0.28646 q -0.02734,-0.008 -0.06771,-0.0117 -0.03906,-0.004 -0.07031,-0.004 -0.08203,0 -0.15625,0.0273 -0.07422,0.026 -0.13151,0.0807 -0.05729,0.0534 -0.08984,0.13411 -0.03255,0.0807 -0.03255,0.1875 v 0.75391 h -0.307293 v -1.44141 h 0.239584 l 0.04167,0.25391 h 0.01432 q 0.04297,-0.0768 0.106771,-0.14063 0.0638,-0.0638 0.145833,-0.10156 0.08333,-0.0391 0.182292,-0.0391 z"
         style="font-weight:600;font-family:'Open Sans';-inkscape-font-specification:'Open Sans Semi-Bold'"
         id="path14560" />
      <path
         d="m 30.276041,103.37115 q 0.24349,0 0.378907,0.1263 0.136719,0.125 0.136719,0.40235 v 0.9401 h -0.30599 v -0.88281 q 0,-0.16797 -0.06901,-0.25131 -0.06901,-0.0846 -0.213542,-0.0846 -0.209636,0 -0.291667,0.12891 -0.08073,0.1289 -0.08073,0.37369 v 0.71615 h -0.30599 v -1.44141 h 0.238281 l 0.04297,0.19532 h 0.01693 q 0.04687,-0.0755 0.115886,-0.1237 0.07031,-0.0495 0.15625,-0.0742 0.08724,-0.0247 0.18099,-0.0247 z"
         style="font-weight:600;font-family:'Open Sans';-inkscape-font-specification:'Open Sans Semi-Bold'"
         id="path14562" />
    </g>
    <g
       aria-label="Heaton Park"
       id="text282-6-1-0-1"
       style="font-size:2.66667px;text-align:end;text-anchor:end;display:inline;stroke-width:0.25">
      <path
         d="m 23.287751,146.5 h -0.311199 v -0.85938 H 22.098947 V 146.5 h -0.3125 v -1.90365 h 0.3125 v 0.77865 h 0.877605 v -0.77865 h 0.311199 z"
         style="font-weight:600;font-family:'Open Sans';-inkscape-font-specification:'Open Sans Semi-Bold'"
         id="path14565" />
      <path
         d="m 24.333325,145.03125 q 0.192708,0 0.330729,0.0794 0.138021,0.0794 0.21224,0.22526 0.07422,0.14583 0.07422,0.34895 v 0.16407 h -0.962241 q 0.0052,0.20963 0.11198,0.32291 0.108073,0.11329 0.302083,0.11329 0.138021,0 0.247397,-0.026 0.110677,-0.0273 0.227864,-0.0794 v 0.2487 q -0.108073,0.0508 -0.220052,0.0742 -0.111979,0.0234 -0.26823,0.0234 -0.212239,0 -0.373698,-0.082 -0.160156,-0.0833 -0.251302,-0.2474 -0.08984,-0.16406 -0.08984,-0.40755 0,-0.24219 0.08203,-0.41146 0.08203,-0.16927 0.230469,-0.25781 0.148438,-0.0885 0.346355,-0.0885 z m 0,0.23047 q -0.144532,0 -0.234375,0.0937 -0.08854,0.0937 -0.104167,0.27474 h 0.656251 q -0.0013,-0.10808 -0.03646,-0.19141 -0.03385,-0.0833 -0.104167,-0.13021 -0.06901,-0.0469 -0.177083,-0.0469 z"
         style="font-weight:600;font-family:'Open Sans';-inkscape-font-specification:'Open Sans Semi-Bold'"
         id="path14567" />
      <path
         d="m 25.86067,145.03125 q 0.273438,0 0.412761,0.12109 0.140626,0.1211 0.140626,0.37761 V 146.5 h -0.217449 l -0.05859,-0.20443 h -0.01042 q -0.0612,0.0781 -0.126302,0.12891 -0.0651,0.0508 -0.151042,0.0755 -0.08464,0.026 -0.207032,0.026 -0.128906,0 -0.230469,-0.0469 -0.101562,-0.0482 -0.160156,-0.14584 -0.05859,-0.0976 -0.05859,-0.24739 0,-0.22266 0.165365,-0.33464 0.166667,-0.11198 0.502604,-0.1237 l 0.250001,-0.009 v -0.0755 q 0,-0.14974 -0.07031,-0.21354 -0.06901,-0.0638 -0.195313,-0.0638 -0.108073,0 -0.209635,0.0312 -0.101563,0.0312 -0.197917,0.0768 l -0.09896,-0.21615 q 0.105469,-0.056 0.239584,-0.0911 0.135417,-0.0351 0.28125,-0.0351 z m 0.250001,0.77995 -0.186198,0.007 q -0.229167,0.008 -0.321615,0.0781 -0.09245,0.0703 -0.09245,0.19271 0,0.10677 0.0638,0.15625 0.0638,0.0482 0.167969,0.0482 0.158854,0 0.263021,-0.0898 0.105469,-0.0911 0.105469,-0.26692 z"
         style="font-weight:600;font-family:'Open Sans';-inkscape-font-specification:'Open Sans Semi-Bold'"
         id="path14569" />
      <path
         d="m 27.378901,146.27865 q 0.0599,0 0.11849,-0.0104 0.05859,-0.0117 0.106771,-0.0273 v 0.23177 q -0.05078,0.0221 -0.13151,0.0378 -0.08073,0.0156 -0.167969,0.0156 -0.122396,0 -0.220053,-0.0404 -0.09766,-0.0417 -0.154948,-0.14193 -0.05729,-0.10026 -0.05729,-0.27734 v -0.77474 h -0.196614 v -0.13672 l 0.210937,-0.10808 0.100261,-0.30859 h 0.192708 v 0.32031 h 0.412761 v 0.23308 h -0.412761 v 0.77083 q 0,0.10937 0.05469,0.16276 0.05469,0.0534 0.144531,0.0534 z"
         style="font-weight:600;font-family:'Open Sans';-inkscape-font-specification:'Open Sans Semi-Bold'"
         id="path14571" />
      <path
         d="m 29.173175,145.77604 q 0,0.17969 -0.04687,0.31901 -0.04687,0.13932 -0.136719,0.23568 -0.08984,0.0951 -0.216146,0.14583 -0.126303,0.0495 -0.285157,0.0495 -0.148438,0 -0.272136,-0.0495 -0.123698,-0.0508 -0.214844,-0.14583 -0.08984,-0.0964 -0.139323,-0.23568 -0.04948,-0.13932 -0.04948,-0.31901 0,-0.23828 0.08203,-0.40365 0.08333,-0.16666 0.23698,-0.2539 0.153646,-0.0872 0.365886,-0.0872 0.199219,0 0.351562,0.0872 0.152344,0.0872 0.238282,0.2539 0.08594,0.16667 0.08594,0.40365 z m -1.045575,0 q 0,0.15755 0.03776,0.26953 0.03906,0.11198 0.119792,0.17188 0.08073,0.0586 0.208333,0.0586 0.127605,0 0.208334,-0.0586 0.08073,-0.0599 0.11849,-0.17188 0.03776,-0.11198 0.03776,-0.26953 0,-0.15755 -0.03776,-0.26693 -0.03776,-0.11067 -0.11849,-0.16797 -0.08073,-0.0586 -0.209636,-0.0586 -0.190104,0 -0.277344,0.1276 -0.08724,0.12761 -0.08724,0.36589 z"
         style="font-weight:600;font-family:'Open Sans';-inkscape-font-specification:'Open Sans Semi-Bold'"
         id="path14573" />
      <path
         d="m 30.276041,145.03125 q 0.24349,0 0.378907,0.1263 0.136718,0.125 0.136718,0.40234 V 146.5 h -0.30599 v -0.88281 q 0,-0.16797 -0.06901,-0.25131 -0.06901,-0.0846 -0.213542,-0.0846 -0.209636,0 -0.291667,0.1289 -0.08073,0.12891 -0.08073,0.3737 V 146.5 h -0.30599 v -1.44141 h 0.238281 l 0.04297,0.19531 h 0.01693 q 0.04687,-0.0755 0.115886,-0.12369 0.07031,-0.0495 0.15625,-0.0742 0.08724,-0.0247 0.18099,-0.0247 z"
         style="font-weight:600;font-family:'Open Sans';-inkscape-font-specification:'Open Sans Semi-Bold'"
         id="path14575" />
      <path
         d="m 25.938796,147.93625 q 0.36849,0 0.537761,0.15104 0.169271,0.15105 0.169271,0.42318 0,0.1237 -0.03906,0.23568 -0.03776,0.11068 -0.125,0.19661 -0.08724,0.0846 -0.230469,0.13412 -0.141927,0.0495 -0.350261,0.0495 H 25.69791 v 0.71354 h -0.312501 v -1.90365 z m -0.02083,0.25912 H 25.69791 v 0.67057 h 0.170573 q 0.147136,0 0.25,-0.0339 0.102865,-0.0352 0.156251,-0.11068 0.05339,-0.0755 0.05339,-0.19922 0,-0.16536 -0.100261,-0.24609 -0.09896,-0.0807 -0.309896,-0.0807 z"
         style="font-weight:600;font-family:'Open Sans';-inkscape-font-specification:'Open Sans Semi-Bold'"
         id="path14577" />
      <path
         d="m 27.558589,148.37115 q 0.273438,0 0.412761,0.12109 0.140625,0.1211 0.140625,0.37761 v 0.97005 h -0.217448 l -0.05859,-0.20443 h -0.01042 q -0.0612,0.0781 -0.126302,0.12891 -0.0651,0.0508 -0.151042,0.0755 -0.08464,0.026 -0.207032,0.026 -0.128906,0 -0.230469,-0.0469 -0.101563,-0.0482 -0.160156,-0.14584 -0.05859,-0.0976 -0.05859,-0.24739 0,-0.22266 0.165365,-0.33464 0.166666,-0.11198 0.502604,-0.1237 l 0.250001,-0.009 v -0.0755 q 0,-0.14974 -0.07031,-0.21354 -0.06901,-0.0638 -0.195313,-0.0638 -0.108073,0 -0.209635,0.0312 -0.101563,0.0312 -0.197917,0.0768 l -0.09896,-0.21615 q 0.105469,-0.056 0.239584,-0.0911 0.135417,-0.0352 0.28125,-0.0352 z m 0.250001,0.77995 -0.186198,0.007 q -0.229167,0.008 -0.321615,0.0781 -0.09245,0.0703 -0.09245,0.19271 0,0.10677 0.0638,0.15625 0.0638,0.0482 0.167969,0.0482 0.158854,0 0.263021,-0.0898 0.105469,-0.0911 0.105469,-0.26693 z"
         style="font-weight:600;font-family:'Open Sans';-inkscape-font-specification:'Open Sans Semi-Bold'"
         id="path14579" />
      <path
         d="m 29.270831,148.37115 q 0.03646,0 0.07943,0.004 0.04297,0.004 0.07422,0.0104 l -0.02865,0.28646 q -0.02734,-0.008 -0.06771,-0.0117 -0.03906,-0.004 -0.07031,-0.004 -0.08203,0 -0.15625,0.0273 -0.07422,0.026 -0.13151,0.0807 -0.05729,0.0534 -0.08984,0.13411 -0.03255,0.0807 -0.03255,0.1875 v 0.75391 h -0.307293 v -1.44141 h 0.239584 l 0.04167,0.25391 h 0.01432 q 0.04297,-0.0768 0.106771,-0.14063 0.0638,-0.0638 0.145833,-0.10156 0.08333,-0.0391 0.182292,-0.0391 z"
         style="font-weight:600;font-family:'Open Sans';-inkscape-font-specification:'Open Sans Semi-Bold'"
         id="path14581" />
      <path
         d="m 29.997394,147.81386 v 0.97916 q 0,0.0664 -0.0052,0.14584 -0.0052,0.0781 -0.01042,0.14713 h 0.0065 q 0.03385,-0.0456 0.08073,-0.10677 0.04818,-0.0612 0.09115,-0.10677 l 0.440105,-0.47396 h 0.351563 l -0.576824,0.6198 0.614584,0.82161 h -0.359375 l -0.460938,-0.63281 -0.171876,0.14713 v 0.48568 h -0.30599 v -2.02604 z"
         style="font-weight:600;font-family:'Open Sans';-inkscape-font-specification:'Open Sans Semi-Bold'"
         id="path14583" />
    </g>
    <g
       aria-label="Prestwich"
       id="text282-6-1-9-6-7"
       style="font-size:2.66667px;text-align:end;text-anchor:end;display:inline;stroke-width:0.25">
      <path
         d="m 19.187485,124.09635 q 0.36849,0 0.537761,0.15104 0.169271,0.15105 0.169271,0.42318 0,0.1237 -0.03906,0.23568 -0.03776,0.11068 -0.125,0.19661 -0.08724,0.0846 -0.230469,0.13412 -0.141927,0.0495 -0.350261,0.0495 H 18.946599 V 126 h -0.3125 v -1.90365 z m -0.02083,0.25912 h -0.220053 v 0.67057 h 0.170573 q 0.147136,0 0.250001,-0.0339 0.102864,-0.0352 0.15625,-0.11068 0.05338,-0.0755 0.05338,-0.19922 0,-0.16536 -0.10026,-0.24609 -0.09896,-0.0807 -0.309896,-0.0807 z"
         style="font-weight:600;font-family:'Open Sans';-inkscape-font-specification:'Open Sans Semi-Bold'"
         id="path15311" />
      <path
         d="m 20.972643,124.53125 q 0.03646,0 0.07943,0.004 0.04297,0.004 0.07422,0.0104 l -0.02865,0.28646 q -0.02734,-0.008 -0.06771,-0.0117 -0.03906,-0.004 -0.07031,-0.004 -0.08203,0 -0.156251,0.0273 -0.07422,0.026 -0.13151,0.0807 -0.05729,0.0534 -0.08984,0.13411 -0.03255,0.0807 -0.03255,0.1875 V 126 H 20.24218 v -1.44141 h 0.239583 l 0.04167,0.25391 h 0.01432 q 0.04297,-0.0768 0.106771,-0.14063 0.0638,-0.0638 0.145834,-0.10156 0.08333,-0.0391 0.182291,-0.0391 z"
         style="font-weight:600;font-family:'Open Sans';-inkscape-font-specification:'Open Sans Semi-Bold'"
         id="path15313" />
      <path
         d="m 21.967436,124.53125 q 0.192709,0 0.33073,0.0794 0.138021,0.0794 0.21224,0.22526 0.07422,0.14583 0.07422,0.34895 v 0.16407 h -0.962241 q 0.0052,0.20963 0.111979,0.32291 0.108073,0.11329 0.302084,0.11329 0.138021,0 0.247396,-0.026 0.110677,-0.0273 0.227865,-0.0794 v 0.2487 q -0.108073,0.0508 -0.220053,0.0742 -0.111979,0.0234 -0.268229,0.0234 -0.21224,0 -0.373698,-0.082 -0.160157,-0.0833 -0.251303,-0.2474 -0.08984,-0.16406 -0.08984,-0.40755 0,-0.24219 0.08203,-0.41146 0.08203,-0.16927 0.230469,-0.25781 0.148437,-0.0885 0.346354,-0.0885 z m 0,0.23047 q -0.144531,0 -0.234375,0.0937 -0.08854,0.0937 -0.104167,0.27474 h 0.656251 q -0.0013,-0.10808 -0.03646,-0.19141 -0.03385,-0.0833 -0.104167,-0.13021 -0.06901,-0.0469 -0.177084,-0.0469 z"
         style="font-weight:600;font-family:'Open Sans';-inkscape-font-specification:'Open Sans Semi-Bold'"
         id="path15315" />
      <path
         d="m 23.898428,125.58854 q 0,0.14193 -0.06901,0.23958 -0.06901,0.0977 -0.201823,0.14844 -0.131511,0.0495 -0.322917,0.0495 -0.151042,0 -0.260417,-0.0221 -0.108073,-0.0208 -0.204428,-0.0651 v -0.26432 q 0.102865,0.0482 0.230469,0.0833 0.128907,0.0352 0.24349,0.0352 0.151042,0 0.217448,-0.0469 0.06641,-0.0482 0.06641,-0.1276 0,-0.0469 -0.02734,-0.0833 -0.02604,-0.0378 -0.09896,-0.0768 -0.07161,-0.0404 -0.210938,-0.0964 -0.136719,-0.0547 -0.230469,-0.10938 -0.09375,-0.0547 -0.141928,-0.13151 -0.04818,-0.0781 -0.04818,-0.19922 0,-0.1914 0.151042,-0.29036 0.152344,-0.10026 0.402344,-0.10026 0.132813,0 0.250001,0.0273 0.118489,0.026 0.231771,0.0768 l -0.09635,0.23047 q -0.09766,-0.043 -0.196615,-0.0703 -0.09766,-0.0286 -0.199219,-0.0286 -0.11849,0 -0.18099,0.0365 -0.0612,0.0365 -0.0612,0.10417 0,0.0508 0.02995,0.0859 0.02995,0.0352 0.102865,0.0703 0.07422,0.0352 0.205729,0.0872 0.128906,0.0495 0.222657,0.10417 0.09505,0.0534 0.145833,0.13151 0.05078,0.0781 0.05078,0.20182 z"
         style="font-weight:600;font-family:'Open Sans';-inkscape-font-specification:'Open Sans Semi-Bold'"
         id="path15317" />
      <path
         d="m 24.764315,125.77865 q 0.0599,0 0.11849,-0.0104 0.05859,-0.0117 0.106771,-0.0273 v 0.23177 q -0.05078,0.0221 -0.131511,0.0378 -0.08073,0.0156 -0.167969,0.0156 -0.122396,0 -0.220052,-0.0404 -0.09766,-0.0417 -0.154948,-0.14193 -0.05729,-0.10026 -0.05729,-0.27734 v -0.77474 h -0.196615 v -0.13672 l 0.210938,-0.10808 0.10026,-0.30859 h 0.192709 v 0.32031 h 0.412761 v 0.23308 h -0.412761 v 0.77083 q 0,0.10937 0.05469,0.16276 0.05469,0.0534 0.144532,0.0534 z"
         style="font-weight:600;font-family:'Open Sans';-inkscape-font-specification:'Open Sans Semi-Bold'"
         id="path15319" />
      <path
         d="m 26.460932,125.9987 -0.182292,-0.67058 q -0.01302,-0.0495 -0.03125,-0.11979 -0.01823,-0.0703 -0.03646,-0.14453 -0.01823,-0.0755 -0.03385,-0.13932 -0.01432,-0.0638 -0.02214,-0.099 h -0.01042 q -0.0065,0.0352 -0.02083,0.099 -0.01432,0.0638 -0.03255,0.13932 -0.01823,0.0755 -0.03646,0.14714 -0.01693,0.0716 -0.03125,0.12239 l -0.191406,0.66537 h -0.335938 l -0.403647,-1.44141 h 0.309897 l 0.1875,0.71615 q 0.01823,0.0729 0.03516,0.15755 0.01823,0.0846 0.03125,0.16146 0.01302,0.0768 0.01953,0.1263 h 0.01042 q 0.0052,-0.0352 0.01432,-0.0885 0.0091,-0.0547 0.02083,-0.11328 0.01172,-0.0599 0.02344,-0.11198 0.01172,-0.0534 0.02213,-0.0859 l 0.221355,-0.76172 h 0.334636 l 0.21224,0.76172 q 0.01432,0.0495 0.03125,0.125 0.01693,0.0742 0.02995,0.14974 0.01432,0.0742 0.01823,0.1237 h 0.01042 q 0.0052,-0.0443 0.01823,-0.11979 0.01432,-0.0768 0.03255,-0.16276 0.01823,-0.0872 0.03776,-0.16146 l 0.191407,-0.71615 h 0.304688 l -0.406251,1.44141 z"
         style="font-weight:600;font-family:'Open Sans';-inkscape-font-specification:'Open Sans Semi-Bold'"
         id="path15321" />
      <path
         d="M 27.763016,124.55859 V 126 h -0.30599 v -1.44141 z m -0.151042,-0.55208 q 0.07031,0 0.121094,0.0378 0.05208,0.0378 0.05208,0.13021 0,0.0911 -0.05208,0.13021 -0.05078,0.0378 -0.121094,0.0378 -0.07292,0 -0.123698,-0.0378 -0.04948,-0.0391 -0.04948,-0.13021 0,-0.0924 0.04948,-0.13021 0.05078,-0.0378 0.123698,-0.0378 z"
         style="font-weight:600;font-family:'Open Sans';-inkscape-font-specification:'Open Sans Semi-Bold'"
         id="path15323" />
      <path
         d="m 28.781247,126.02604 q -0.204427,0 -0.354167,-0.0794 -0.14974,-0.0794 -0.230469,-0.24349 -0.08073,-0.16406 -0.08073,-0.41666 0,-0.26302 0.08854,-0.42969 0.08854,-0.16667 0.244792,-0.24609 0.157552,-0.0794 0.360677,-0.0794 0.128907,0 0.233073,0.026 0.105469,0.0247 0.178386,0.0612 l -0.09115,0.24479 q -0.07943,-0.0326 -0.162761,-0.0547 -0.08333,-0.0221 -0.160156,-0.0221 -0.126302,0 -0.210938,0.056 -0.08333,0.056 -0.125,0.16666 -0.04036,0.11068 -0.04036,0.27474 0,0.15886 0.04167,0.26823 0.04167,0.10808 0.123698,0.16407 0.08203,0.0547 0.201823,0.0547 0.11849,0 0.21224,-0.0286 0.09375,-0.0286 0.177084,-0.0742 v 0.26562 q -0.08203,0.0469 -0.175782,0.069 -0.09375,0.0234 -0.230469,0.0234 z"
         style="font-weight:600;font-family:'Open Sans';-inkscape-font-specification:'Open Sans Semi-Bold'"
         id="path15325" />
      <path
         d="m 29.830728,123.97396 v 0.50911 q 0,0.0794 -0.0052,0.15495 -0.0039,0.0755 -0.0091,0.11719 h 0.01693 q 0.04557,-0.0755 0.111979,-0.1237 0.06641,-0.0495 0.148438,-0.0742 0.08333,-0.0247 0.177084,-0.0247 0.165365,0 0.28125,0.056 0.115886,0.0547 0.177084,0.17057 0.0625,0.11589 0.0625,0.30078 V 126 h -0.30599 v -0.88281 q 0,-0.16797 -0.06901,-0.25131 -0.06901,-0.0846 -0.213542,-0.0846 -0.139323,0 -0.221354,0.0586 -0.08073,0.0573 -0.115886,0.17058 -0.03516,0.11197 -0.03516,0.27343 V 126 h -0.30599 v -2.02604 z"
         style="font-weight:600;font-family:'Open Sans';-inkscape-font-specification:'Open Sans Semi-Bold'"
         id="path15327" />
    </g>
    <g
       aria-label="Radcliffe"
       id="text282-6-1-9-6-5-3"
       style="font-size:2.66667px;text-align:end;text-anchor:end;display:inline;stroke-width:0.25">
      <path
         d="m 20.597643,56.596352 q 0.246094,0 0.40625,0.0599 0.161459,0.0599 0.239584,0.182292 0.07943,0.122396 0.07943,0.311198 0,0.140625 -0.05208,0.239583 -0.05208,0.09896 -0.136719,0.164063 -0.08464,0.0651 -0.18099,0.104167 L 21.493477,58.5 h -0.352865 l -0.459636,-0.763022 h -0.30599 V 58.5 h -0.3125 v -1.903648 z m -0.02083,0.260417 h -0.201824 v 0.622396 h 0.216146 q 0.217449,0 0.315105,-0.08073 0.09896,-0.08073 0.09896,-0.238281 0,-0.165365 -0.105469,-0.234376 -0.104167,-0.06901 -0.322917,-0.06901 z"
         style="font-weight:600;font-family:'Open Sans';-inkscape-font-specification:'Open Sans Semi-Bold'"
         id="path15358" />
      <path
         d="m 22.299468,57.031248 q 0.273438,0 0.412761,0.121094 0.140625,0.121094 0.140625,0.377605 V 58.5 h -0.217448 l -0.05859,-0.204427 h -0.01042 q -0.0612,0.07813 -0.126302,0.128906 -0.0651,0.05078 -0.151042,0.07552 -0.08464,0.02604 -0.207031,0.02604 -0.128907,0 -0.230469,-0.04687 -0.101563,-0.04818 -0.160157,-0.145834 -0.05859,-0.09766 -0.05859,-0.247396 0,-0.222657 0.165365,-0.334636 0.166667,-0.111979 0.502605,-0.123698 l 0.25,-0.0091 v -0.07552 q 0,-0.14974 -0.07031,-0.213542 -0.06901,-0.0638 -0.195313,-0.0638 -0.108073,0 -0.209636,0.03125 -0.101562,0.03125 -0.197917,0.07682 l -0.09896,-0.216146 q 0.105469,-0.05599 0.239584,-0.09115 0.135416,-0.03516 0.28125,-0.03516 z m 0.25,0.779949 -0.186198,0.0065 q -0.229167,0.0078 -0.321615,0.07813 -0.09245,0.07031 -0.09245,0.192708 0,0.106771 0.0638,0.15625 0.0638,0.04818 0.167969,0.04818 0.158855,0 0.263021,-0.08984 0.105469,-0.09115 0.105469,-0.266928 z"
         style="font-weight:600;font-family:'Open Sans';-inkscape-font-specification:'Open Sans Semi-Bold'"
         id="path15360" />
      <path
         d="m 23.765616,58.526042 q -0.257813,0 -0.414063,-0.187501 -0.154948,-0.188802 -0.154948,-0.55599 0,-0.371094 0.157552,-0.561198 0.158854,-0.190105 0.417969,-0.190105 0.109375,0 0.191407,0.02995 0.08203,0.02865 0.140625,0.07813 0.0599,0.04948 0.101563,0.110677 h 0.01432 q -0.0065,-0.04036 -0.01563,-0.115885 -0.0078,-0.07682 -0.0078,-0.141927 v -0.51823 h 0.307292 V 58.5 h -0.239584 l -0.05469,-0.196615 h -0.01302 q -0.03906,0.0625 -0.09896,0.113282 -0.05859,0.04948 -0.140626,0.07943 -0.08073,0.02995 -0.191406,0.02995 z m 0.08594,-0.248699 q 0.196615,0 0.277345,-0.113281 0.08073,-0.113281 0.08333,-0.339844 v -0.04037 q 0,-0.242188 -0.07813,-0.371094 -0.07813,-0.130208 -0.285157,-0.130208 -0.165364,0 -0.252604,0.134114 -0.08594,0.132813 -0.08594,0.371095 0,0.238281 0.08594,0.364583 0.08724,0.125 0.255208,0.125 z"
         style="font-weight:600;font-family:'Open Sans';-inkscape-font-specification:'Open Sans Semi-Bold'"
         id="path15362" />
      <path
         d="m 25.522128,58.526042 q -0.204427,0 -0.354167,-0.07943 -0.14974,-0.07943 -0.230469,-0.24349 -0.08073,-0.164063 -0.08073,-0.416668 0,-0.263021 0.08854,-0.429688 0.08854,-0.166667 0.244792,-0.246094 0.157552,-0.07943 0.360677,-0.07943 0.128907,0 0.233073,0.02604 0.105469,0.02474 0.178386,0.0612 l -0.09115,0.244792 q -0.07943,-0.03255 -0.162761,-0.05469 -0.08333,-0.02213 -0.160156,-0.02213 -0.126302,0 -0.210938,0.05599 -0.08333,0.05599 -0.125,0.166667 -0.04037,0.110678 -0.04037,0.27474 0,0.158855 0.04167,0.26823 0.04167,0.108073 0.123698,0.164062 0.08203,0.05469 0.201823,0.05469 0.11849,0 0.21224,-0.02865 0.09375,-0.02865 0.177084,-0.07422 v 0.265626 q -0.08203,0.04687 -0.175782,0.06901 -0.09375,0.02344 -0.230469,0.02344 z"
         style="font-weight:600;font-family:'Open Sans';-inkscape-font-specification:'Open Sans Semi-Bold'"
         id="path15364" />
      <path
         d="m 26.572911,58.5 h -0.307292 v -2.026044 h 0.307292 z"
         style="font-weight:600;font-family:'Open Sans';-inkscape-font-specification:'Open Sans Semi-Bold'"
         id="path15366" />
      <path
         d="M 27.315099,57.058592 V 58.5 h -0.30599 v -1.441408 z m -0.151042,-0.552084 q 0.07031,0 0.121094,0.03776 0.05208,0.03776 0.05208,0.130209 0,0.09115 -0.05208,0.130208 -0.05078,0.03776 -0.121094,0.03776 -0.07292,0 -0.123698,-0.03776 -0.04948,-0.03906 -0.04948,-0.130208 0,-0.09245 0.04948,-0.130209 0.05078,-0.03776 0.123698,-0.03776 z"
         style="font-weight:600;font-family:'Open Sans';-inkscape-font-specification:'Open Sans Semi-Bold'"
         id="path15368" />
      <path
         d="M 28.472653,57.291665 H 28.122392 V 58.5 h -0.30599 V 57.291665 H 27.580725 V 57.14453 l 0.235677,-0.08984 v -0.100261 q 0,-0.183594 0.05729,-0.291667 0.05859,-0.108073 0.166667,-0.154948 0.109375,-0.04818 0.260417,-0.04818 0.09896,0 0.18099,0.01693 0.08203,0.01563 0.138021,0.03646 l -0.07943,0.231771 q -0.04427,-0.01432 -0.09896,-0.02604 -0.05469,-0.01302 -0.117188,-0.01302 -0.104167,0 -0.153646,0.0651 -0.04818,0.0651 -0.04818,0.190105 v 0.09766 h 0.350261 z m 0.964845,0 H 29.087237 V 58.5 h -0.30599 V 57.291665 H 28.54557 V 57.14453 l 0.235677,-0.08984 v -0.100261 q 0,-0.183594 0.05729,-0.291667 0.05859,-0.108073 0.166667,-0.154948 0.109375,-0.04818 0.260417,-0.04818 0.09896,0 0.18099,0.01693 0.08203,0.01563 0.138021,0.03646 l -0.07943,0.231771 q -0.04427,-0.01432 -0.09896,-0.02604 -0.05469,-0.01302 -0.117188,-0.01302 -0.104167,0 -0.153646,0.0651 -0.04818,0.0651 -0.04818,0.190105 v 0.09766 h 0.350261 z"
         style="font-weight:600;font-family:'Open Sans';-inkscape-font-specification:'Open Sans Semi-Bold'"
         id="path15370" />
      <path
         d="m 30.25651,57.031248 q 0.192708,0 0.330729,0.07943 0.138021,0.07943 0.21224,0.225261 0.07422,0.145834 0.07422,0.348959 v 0.164062 h -0.962241 q 0.0052,0.209636 0.11198,0.322918 0.108073,0.113281 0.302083,0.113281 0.138021,0 0.247396,-0.02604 0.110678,-0.02734 0.227865,-0.07943 v 0.248698 q -0.108073,0.05078 -0.220052,0.07422 -0.111979,0.02344 -0.26823,0.02344 -0.212239,0 -0.373698,-0.08203 -0.160156,-0.08333 -0.251302,-0.247396 -0.08984,-0.164063 -0.08984,-0.407552 0,-0.242188 0.08203,-0.411459 0.08203,-0.169271 0.230469,-0.257813 0.148438,-0.08854 0.346355,-0.08854 z m 0,0.230469 q -0.144532,0 -0.234375,0.09375 -0.08854,0.09375 -0.104167,0.27474 h 0.656251 q -0.0013,-0.108073 -0.03646,-0.191406 -0.03385,-0.08333 -0.104167,-0.130209 -0.06901,-0.04687 -0.177083,-0.04687 z"
         style="font-weight:600;font-family:'Open Sans';-inkscape-font-specification:'Open Sans Semi-Bold'"
         id="path15372" />
    </g>
    <g
       aria-label="Whitefield"
       id="text282-6-1-9-6-5-3-6"
       style="font-size:2.66667px;text-align:end;text-anchor:end;display:inline;stroke-width:0.25">
      <path
         d="M 20.303372,79.096352 19.805975,81 H 19.464829 L 19.14712,79.859374 q -0.01172,-0.04167 -0.02604,-0.09896 -0.01432,-0.05729 -0.02865,-0.117188 -0.01302,-0.05989 -0.02344,-0.109375 -0.0091,-0.05078 -0.01302,-0.07813 -0.0026,0.02734 -0.01172,0.07682 -0.0091,0.04948 -0.02214,0.109375 -0.01172,0.05859 -0.02604,0.117188 -0.01432,0.05729 -0.02604,0.101563 L 18.657536,81 H 18.317692 L 17.821598,79.096352 H 18.1354 l 0.27474,1.115887 q 0.01302,0.05339 0.02604,0.115885 0.01432,0.0612 0.02604,0.123698 0.01302,0.0625 0.02344,0.122396 0.01042,0.05859 0.01693,0.106771 0.0065,-0.04948 0.01693,-0.109375 0.01042,-0.0612 0.02214,-0.123698 0.01302,-0.0638 0.02604,-0.122396 0.01432,-0.05859 0.02865,-0.105469 l 0.309897,-1.123699 h 0.304687 l 0.316407,1.127605 q 0.01432,0.04818 0.02734,0.108073 0.01432,0.0599 0.02734,0.122396 0.01302,0.0625 0.02344,0.121094 0.01042,0.05859 0.01693,0.105469 0.0091,-0.0638 0.02344,-0.145833 0.01432,-0.08203 0.03255,-0.166667 0.01823,-0.08464 0.03646,-0.15625 l 0.273438,-1.115887 z"
         style="font-weight:600;font-family:'Open Sans';-inkscape-font-specification:'Open Sans Semi-Bold'"
         id="path15375" />
      <path
         d="m 20.847643,78.973956 v 0.509115 q 0,0.07943 -0.0052,0.154948 -0.0039,0.07552 -0.0091,0.117188 h 0.01693 q 0.04557,-0.07552 0.11198,-0.123698 0.06641,-0.04948 0.148437,-0.07422 0.08333,-0.02474 0.177084,-0.02474 0.165365,0 0.28125,0.05599 0.115886,0.05469 0.177084,0.170573 0.0625,0.115886 0.0625,0.300782 V 81 h -0.30599 v -0.882814 q 0,-0.167969 -0.06901,-0.251302 -0.06901,-0.08464 -0.213542,-0.08464 -0.139324,0 -0.221355,0.05859 -0.08073,0.05729 -0.115885,0.170573 -0.03516,0.11198 -0.03516,0.273438 V 81 h -0.30599 v -2.026044 z"
         style="font-weight:600;font-family:'Open Sans';-inkscape-font-specification:'Open Sans Semi-Bold'"
         id="path15377" />
      <path
         d="M 22.541656,79.558592 V 81 h -0.30599 v -1.441408 z m -0.151042,-0.552084 q 0.07031,0 0.121094,0.03776 0.05208,0.03776 0.05208,0.130209 0,0.09115 -0.05208,0.130208 -0.05078,0.03776 -0.121094,0.03776 -0.07292,0 -0.123698,-0.03776 -0.04948,-0.03906 -0.04948,-0.130208 0,-0.09245 0.04948,-0.130209 0.05078,-0.03776 0.123698,-0.03776 z"
         style="font-weight:600;font-family:'Open Sans';-inkscape-font-specification:'Open Sans Semi-Bold'"
         id="path15379" />
      <path
         d="m 23.515615,80.778646 q 0.0599,0 0.11849,-0.01042 0.05859,-0.01172 0.106771,-0.02734 v 0.231771 q -0.05078,0.02214 -0.13151,0.03776 -0.08073,0.01563 -0.167969,0.01563 -0.122396,0 -0.220053,-0.04037 -0.09766,-0.04167 -0.154948,-0.141927 -0.05729,-0.100261 -0.05729,-0.277344 V 79.791665 H 22.81249 v -0.136719 l 0.210937,-0.108073 0.100261,-0.308594 h 0.192708 v 0.320313 h 0.412761 v 0.233073 h -0.412761 v 0.770834 q 0,0.109376 0.05469,0.162761 0.05469,0.05339 0.144531,0.05339 z"
         style="font-weight:600;font-family:'Open Sans';-inkscape-font-specification:'Open Sans Semi-Bold'"
         id="path15381" />
      <path
         d="m 24.608065,79.531248 q 0.192708,0 0.330729,0.07943 0.138021,0.07943 0.21224,0.225261 0.07422,0.145834 0.07422,0.348959 v 0.164062 h -0.962241 q 0.0052,0.209636 0.11198,0.322918 0.108073,0.113281 0.302083,0.113281 0.138021,0 0.247396,-0.02604 0.110678,-0.02734 0.227865,-0.07943 v 0.248698 q -0.108073,0.05078 -0.220052,0.07422 -0.111979,0.02344 -0.26823,0.02344 -0.212239,0 -0.373698,-0.08203 -0.160156,-0.08333 -0.251302,-0.247396 -0.08984,-0.164063 -0.08984,-0.407552 0,-0.242188 0.08203,-0.411459 0.08203,-0.169271 0.230469,-0.257813 0.148438,-0.08854 0.346355,-0.08854 z m 0,0.230469 q -0.144532,0 -0.234375,0.09375 -0.08854,0.09375 -0.104167,0.27474 h 0.656251 q -0.0013,-0.108073 -0.03646,-0.191406 -0.03385,-0.08333 -0.104167,-0.130209 -0.06901,-0.04687 -0.177083,-0.04687 z"
         style="font-weight:600;font-family:'Open Sans';-inkscape-font-specification:'Open Sans Semi-Bold'"
         id="path15383" />
      <path
         d="M 26.290359,79.791665 H 25.940098 V 81 h -0.30599 V 79.791665 H 25.398431 V 79.64453 l 0.235677,-0.08984 v -0.100261 q 0,-0.183594 0.05729,-0.291667 0.05859,-0.108073 0.166667,-0.154948 0.109375,-0.04818 0.260417,-0.04818 0.09896,0 0.180989,0.01693 0.08203,0.01563 0.138021,0.03646 l -0.07943,0.231771 q -0.04427,-0.01432 -0.09896,-0.02604 -0.05469,-0.01302 -0.117188,-0.01302 -0.104167,0 -0.153646,0.0651 -0.04818,0.0651 -0.04818,0.190105 v 0.09766 h 0.350261 z m 0.550782,-0.233073 V 81 h -0.30599 v -1.441408 z m -0.151042,-0.552084 q 0.07031,0 0.121094,0.03776 0.05208,0.03776 0.05208,0.130209 0,0.09115 -0.05208,0.130208 -0.05078,0.03776 -0.121094,0.03776 -0.07292,0 -0.123698,-0.03776 -0.04948,-0.03906 -0.04948,-0.130208 0,-0.09245 0.04948,-0.130209 0.05078,-0.03776 0.123698,-0.03776 z"
         style="font-weight:600;font-family:'Open Sans';-inkscape-font-specification:'Open Sans Semi-Bold'"
         id="path15385" />
      <path
         d="m 27.85286,79.531248 q 0.192709,0 0.33073,0.07943 0.138021,0.07943 0.21224,0.225261 0.07422,0.145834 0.07422,0.348959 v 0.164062 h -0.96224 q 0.0052,0.209636 0.111979,0.322918 0.108073,0.113281 0.302084,0.113281 0.138021,0 0.247396,-0.02604 0.110677,-0.02734 0.227865,-0.07943 v 0.248698 q -0.108073,0.05078 -0.220053,0.07422 -0.111979,0.02344 -0.268229,0.02344 -0.21224,0 -0.373699,-0.08203 -0.160156,-0.08333 -0.251302,-0.247396 -0.08984,-0.164063 -0.08984,-0.407552 0,-0.242188 0.08203,-0.411459 0.08203,-0.169271 0.23047,-0.257813 0.148437,-0.08854 0.346354,-0.08854 z m 0,0.230469 q -0.144531,0 -0.234375,0.09375 -0.08854,0.09375 -0.104167,0.27474 h 0.656251 q -0.0013,-0.108073 -0.03646,-0.191406 -0.03385,-0.08333 -0.104166,-0.130209 -0.06901,-0.04687 -0.177084,-0.04687 z"
         style="font-weight:600;font-family:'Open Sans';-inkscape-font-specification:'Open Sans Semi-Bold'"
         id="path15387" />
      <path
         d="m 29.122394,81 h -0.307292 v -2.026044 h 0.307292 z"
         style="font-weight:600;font-family:'Open Sans';-inkscape-font-specification:'Open Sans Semi-Bold'"
         id="path15389" />
      <path
         d="m 30.042967,81.026042 q -0.257812,0 -0.414063,-0.187501 -0.154948,-0.188802 -0.154948,-0.55599 0,-0.371094 0.157553,-0.561198 0.158854,-0.190105 0.417969,-0.190105 0.109375,0 0.191406,0.02995 0.08203,0.02865 0.140625,0.07813 0.0599,0.04948 0.101563,0.110677 h 0.01432 q -0.0065,-0.04036 -0.01563,-0.115885 -0.0078,-0.07682 -0.0078,-0.141927 v -0.51823 H 30.78125 V 81 h -0.239584 l -0.05469,-0.196615 h -0.01302 q -0.03906,0.0625 -0.09896,0.113282 -0.05859,0.04948 -0.140625,0.07943 -0.08073,0.02995 -0.191407,0.02995 z m 0.08594,-0.248699 q 0.196615,0 0.277344,-0.113281 0.08073,-0.113281 0.08333,-0.339844 v -0.04037 q 0,-0.242188 -0.07813,-0.371094 -0.07813,-0.130208 -0.285156,-0.130208 -0.165365,0 -0.252605,0.134114 -0.08594,0.132813 -0.08594,0.371095 0,0.238281 0.08594,0.364583 0.08724,0.125 0.255209,0.125 z"
         style="font-weight:600;font-family:'Open Sans';-inkscape-font-specification:'Open Sans Semi-Bold'"
         id="path15391" />
    </g>
  </g>
</svg>
