<?xml version="1.0" encoding="UTF-8" standalone="no"?>
<!-- Created with Inkscape (http://www.inkscape.org/) -->

<svg
   width="100"
   height="100"
   viewBox="0 0 99.999994 99.999995"
   version="1.1"
   id="svg5"
   xml:space="preserve"
   xmlns="http://www.w3.org/2000/svg"
   xmlns:svg="http://www.w3.org/2000/svg"><defs
     id="defs2" /><g
     id="layer1"><path
       id="path702"
       style="display:inline;opacity:1;fill:#000000;stroke:#000000;stroke-opacity:0"
       d="M 50,4.6542969 34.769531,5.1289062 C 33.285907,4.990966 31.79034,5.0863006 30.335938,5.4101562 27.852409,6.2971306 25.583387,7.6966808 23.675781,9.5175781 l -4.121093,3.9316409 c -1.851195,1.767046 -2.915762,4.202877 -2.957032,6.761719 l -0.921875,57.148437 c -0.04294,2.662472 0.116779,5.324487 0.476563,7.962891 l 0.720703,5.283203 c -0.420394,1.599206 0.266102,3.282702 1.685547,4.130859 1.606141,0.461546 3.296047,0.556591 4.943359,0.275391 2.535825,-0.792444 5.15849,-1.273667 7.810547,-1.431641 L 50,92.466797 68.6875,93.580078 c 2.652057,0.157974 5.274722,0.639197 7.810547,1.431641 1.647312,0.2812 3.337218,0.186155 4.943359,-0.275391 1.419445,-0.848157 2.105941,-2.531653 1.685547,-4.130859 l 0.720703,-5.283203 c 0.359784,-2.638404 0.519507,-5.300419 0.476563,-7.962891 L 83.402344,20.210938 c -0.04127,-2.558842 -1.105837,-4.994673 -2.957032,-6.761719 L 76.324219,9.5175781 C 74.416613,7.6966808 72.147591,6.2971306 69.664062,5.4101562 68.20966,5.0863006 66.714093,4.990966 65.230469,5.1289062 Z M 36.855469,13.958984 h 26.289062 c 0.289932,0 0.523438,0.233505 0.523438,0.523438 v 4.605469 c 0,0.28993 -0.233506,0.523437 -0.523438,0.523437 H 36.855469 c -0.289932,0 -0.523438,-0.233507 -0.523438,-0.523437 v -4.605469 c 0,-0.289933 0.233506,-0.523438 0.523438,-0.523438 z m -7.326172,8.482422 h 40.941406 c 1.801727,0 3.251953,1.450226 3.251953,3.251953 v 28.621094 c 0,1.801727 -1.450226,3.251953 -3.251953,3.251953 H 29.529297 c -1.801727,0 -3.251953,-1.450226 -3.251953,-3.251953 V 25.693359 c 0,-1.801727 1.450226,-3.251953 3.251953,-3.251953 z m 4.142578,42.367188 c 2.761421,0 5,2.238579 5,5 0,2.761421 -2.238579,5 -5,5 -2.76142,0 -5,-2.238579 -5,-5 0,-2.761421 2.23858,-5 5,-5 z m 32.65625,0 c 2.76142,0 5,2.238579 5,5 0,2.761421 -2.23858,5 -5,5 -2.761421,0 -5,-2.238579 -5,-5 0,-2.761421 2.238579,-5 5,-5 z M 40.980469,84.363281 50,84.402344 l 9.019531,-0.03906 -1.5,3.902344 H 50 42.480469 Z" /></g></svg>
